<svg width="56" height="24" viewBox="0 0 56 24" fill="none" xmlns="http://www.w3.org/2000/svg">
<path d="M4.728 9.084C3.936 9.084 3.208 8.9 2.544 8.532C1.888 8.164 1.364 7.652 0.972 6.996C0.588 6.332 0.396 5.588 0.396 4.764C0.396 3.94 0.588 3.2 0.972 2.544C1.364 1.888 1.888 1.376 2.544 1.008C3.208 0.64 3.936 0.456 4.728 0.456C5.52 0.456 6.244 0.64 6.9 1.008C7.564 1.376 8.084 1.888 8.46 2.544C8.844 3.2 9.036 3.94 9.036 4.764C9.036 5.588 8.844 6.332 8.46 6.996C8.076 7.652 7.556 8.164 6.9 8.532C6.244 8.9 5.52 9.084 4.728 9.084ZM4.728 7.212C5.4 7.212 5.936 6.988 6.336 6.54C6.744 6.092 6.948 5.5 6.948 4.764C6.948 4.02 6.744 3.428 6.336 2.988C5.936 2.54 5.4 2.316 4.728 2.316C4.048 2.316 3.504 2.536 3.096 2.976C2.696 3.416 2.496 4.012 2.496 4.764C2.496 5.508 2.696 6.104 3.096 6.552C3.504 6.992 4.048 7.212 4.728 7.212ZM16.5976 3.288C16.5976 3.776 16.4856 4.224 16.2616 4.632C16.0376 5.032 15.6936 5.356 15.2296 5.604C14.7656 5.852 14.1896 5.976 13.5016 5.976H12.2296V9H10.1776V0.576H13.5016C14.1736 0.576 14.7416 0.692 15.2056 0.924C15.6696 1.156 16.0176 1.476 16.2496 1.884C16.4816 2.292 16.5976 2.76 16.5976 3.288ZM13.3456 4.344C13.7376 4.344 14.0296 4.252 14.2216 4.068C14.4136 3.884 14.5096 3.624 14.5096 3.288C14.5096 2.952 14.4136 2.692 14.2216 2.508C14.0296 2.324 13.7376 2.232 13.3456 2.232H12.2296V4.344H13.3456ZM19.7179 2.22V3.924H22.4659V5.508H19.7179V7.356H22.8259V9H17.6659V0.576H22.8259V2.22H19.7179ZM31.6941 9H29.6421L26.2101 3.804V9H24.1581V0.576H26.2101L29.6421 5.796V0.576H31.6941V9ZM5.844 18.68C6.332 18.784 6.724 19.028 7.02 19.412C7.316 19.788 7.464 20.22 7.464 20.708C7.464 21.412 7.216 21.972 6.72 22.388C6.232 22.796 5.548 23 4.668 23H0.744V14.576H4.536C5.392 14.576 6.06 14.772 6.54 15.164C7.028 15.556 7.272 16.088 7.272 16.76C7.272 17.256 7.14 17.668 6.876 17.996C6.62 18.324 6.276 18.552 5.844 18.68ZM2.796 17.984H4.14C4.476 17.984 4.732 17.912 4.908 17.768C5.092 17.616 5.184 17.396 5.184 17.108C5.184 16.82 5.092 16.6 4.908 16.448C4.732 16.296 4.476 16.22 4.14 16.22H2.796V17.984ZM4.308 21.344C4.652 21.344 4.916 21.268 5.1 21.116C5.292 20.956 5.388 20.728 5.388 20.432C5.388 20.136 5.288 19.904 5.088 19.736C4.896 19.568 4.628 19.484 4.284 19.484H2.796V21.344H4.308ZM13.8982 21.512H10.7542L10.2502 23H8.10216L11.1502 14.576H13.5262L16.5742 23H14.4022L13.8982 21.512ZM13.3702 19.928L12.3262 16.844L11.2942 19.928H13.3702ZM25.0378 23H22.9858L19.5538 17.804V23H17.5018V14.576H19.5538L22.9858 19.796V14.576H25.0378V23ZM31.4093 23L28.5773 19.28V23H26.5253V14.576H28.5773V18.272L31.3853 14.576H33.7973L30.5333 18.704L33.9173 23H31.4093ZM36.9444 14.576V23H34.8924V14.576H36.9444ZM45.9675 23H43.9155L40.4835 17.804V23H38.4315V14.576H40.4835L43.9155 19.796V14.576H45.9675V23ZM53.0469 17.24C52.8949 16.96 52.6749 16.748 52.3869 16.604C52.1069 16.452 51.7749 16.376 51.3909 16.376C50.7269 16.376 50.1949 16.596 49.7949 17.036C49.3949 17.468 49.1949 18.048 49.1949 18.776C49.1949 19.552 49.4029 20.16 49.8189 20.6C50.2429 21.032 50.8229 21.248 51.5589 21.248C52.0629 21.248 52.4869 21.12 52.8309 20.864C53.1829 20.608 53.4389 20.24 53.5989 19.76H50.9949V18.248H55.4589V20.156C55.3069 20.668 55.0469 21.144 54.6789 21.584C54.3189 22.024 53.8589 22.38 53.2989 22.652C52.7389 22.924 52.1069 23.06 51.4029 23.06C50.5709 23.06 49.8269 22.88 49.1709 22.52C48.5229 22.152 48.0149 21.644 47.6469 20.996C47.2869 20.348 47.1069 19.608 47.1069 18.776C47.1069 17.944 47.2869 17.204 47.6469 16.556C48.0149 15.9 48.5229 15.392 49.1709 15.032C49.8189 14.664 50.5589 14.48 51.3909 14.48C52.3989 14.48 53.2469 14.724 53.9349 15.212C54.6309 15.7 55.0909 16.376 55.3149 17.24H53.0469Z" fill="#101289"/>
</svg>
