<svg width="16" height="12" viewBox="0 0 16 12" fill="none" xmlns="http://www.w3.org/2000/svg">
<g clip-path="url(#clip0_64_12922)">
<path fill-rule="evenodd" clip-rule="evenodd" d="M0 0H16V12H0V0Z" fill="#229E45"/>
<path fill-rule="evenodd" clip-rule="evenodd" d="M8.03499 10.9L15.5725 6.00751L7.98999 1.10001L0.42749 6.01751L8.03499 10.9Z" fill="#F8E509"/>
<path fill-rule="evenodd" clip-rule="evenodd" d="M11.32 6C11.32 7.7575 9.89251 9.1825 8.13001 9.1825C7.50019 9.18151 6.88479 8.99381 6.36163 8.64313C5.83846 8.29244 5.43101 7.79452 5.19079 7.21231C4.95056 6.63009 4.88835 5.98972 5.01201 5.37216C5.13567 4.75459 5.43965 4.18755 5.88553 3.74272C6.33141 3.29789 6.89916 2.99524 7.51702 2.87303C8.13488 2.75083 8.7751 2.81455 9.35674 3.05614C9.93839 3.29774 10.4354 3.70636 10.7848 4.23035C11.1343 4.75434 11.3205 5.37017 11.32 6Z" fill="#2B49A3"/>
<path fill-rule="evenodd" clip-rule="evenodd" d="M7.0825 7.9075L6.9825 7.85L6.8825 7.9L6.905 7.7875L6.825 7.7025L6.9375 7.69L6.9925 7.59L7.04 7.695L7.15 7.715L7.0675 7.79M9.2175 8.4475L9.12 8.39L9.02 8.44L9.04 8.3275L8.9625 8.245L9.075 8.2325L9.1275 8.13L9.1775 8.235L9.2875 8.255L9.2025 8.3325M8.2975 7.5825L8.2125 7.5325L8.125 7.5775L8.145 7.48L8.075 7.4075L8.175 7.3975L8.22 7.3075L8.26 7.4L8.3575 7.4175L8.2825 7.485M10.4575 7.2725L10.3725 7.2225L10.285 7.2675L10.305 7.17L10.2375 7.1L10.335 7.09L10.38 7.0025L10.42 7.0925L10.515 7.11L10.4425 7.175M8.26 6.625L8.16 6.57L8.06 6.62L8.08 6.505L8.0025 6.4225L8.115 6.41L8.1675 6.3075L8.2175 6.4125L8.3275 6.4325L8.2425 6.5125M5.6275 5.6375L5.5275 5.5825L5.4275 5.6325L5.4525 5.5175L5.37 5.435L5.485 5.4225L5.535 5.32L5.585 5.425L5.695 5.445L5.6125 5.5225M5.945 6.9525L5.845 6.895L5.745 6.945L5.7675 6.8325L5.6875 6.75L5.8 6.735L5.8525 6.635L5.9025 6.74L6.0125 6.76L5.93 6.8375M9.23 5.155L9.14 5.105L9.05 5.15L9.07 5.05L9 4.975L9.1 4.9625L9.1475 4.8725L9.19 4.9675L9.29 4.985L9.215 5.0525M9.0475 6.01L8.98 5.97L8.9075 6.005L8.9225 5.925L8.8675 5.8675L8.9475 5.8575L8.985 5.7875L9.0175 5.8625L9.0925 5.875L9.0375 5.93M5.4825 7.19L5.415 7.1525L5.3475 7.185L5.3625 7.11L5.31 7.055L5.385 7.045L5.42 6.9775L5.4525 7.0475L5.5275 7.0625L5.47 7.1125M10.475 7.495L10.42 7.4675L10.365 7.4925L10.3775 7.435L10.335 7.395L10.395 7.3875L10.425 7.3375L10.45 7.3875L10.5125 7.4L10.465 7.4375" fill="#FFFFEF"/>
<path fill-rule="evenodd" clip-rule="evenodd" d="M5.4825 7.18999L5.415 7.15249L5.3475 7.18499L5.3625 7.10999L5.31 7.05499L5.385 7.04499L5.42 6.97749L5.4525 7.04749L5.5275 7.06249L5.47 7.11249" fill="#FFFFEF"/>
<path fill-rule="evenodd" clip-rule="evenodd" d="M5.4825 7.19L5.415 7.1525L5.3475 7.185L5.3625 7.11L5.31 7.055L5.385 7.045L5.42 6.9775L5.4525 7.0475L5.5275 7.0625L5.47 7.1125M6.5275 7.1875L6.4625 7.1525L6.395 7.185L6.41 7.11L6.3575 7.055L6.4325 7.045L6.4675 6.9775L6.5 7.0475L6.575 7.06L6.5175 7.1125M6.3975 7.5375L6.3325 7.5L6.265 7.535L6.28 7.46L6.2275 7.4025L6.3025 7.3925L6.3375 7.325L6.37 7.395L6.445 7.41L6.3875 7.46M8.5725 6.905L8.5075 6.865L8.4375 6.9L8.4525 6.825L8.4025 6.7675L8.4775 6.76L8.5125 6.6925L8.5425 6.7625L8.6175 6.775L8.5625 6.8275M7.935 6.9025L7.8675 6.865L7.8 6.9L7.815 6.825L7.765 6.7675L7.84 6.76L7.875 6.69L7.905 6.7625L7.98 6.775L7.925 6.8275M6.205 6.6825L6.1625 6.6575L6.12 6.6775L6.13 6.63L6.0975 6.595L6.145 6.59L6.165 6.5475L6.185 6.5925L6.2325 6.6L6.1975 6.6325M10.3925 7.7675L10.3275 7.73L10.26 7.765L10.275 7.69L10.2225 7.6325L10.2975 7.6225L10.3325 7.555L10.365 7.625L10.44 7.64L10.3825 7.69M9.8625 7.84L9.8075 7.805L9.75 7.835L9.7625 7.77L9.72 7.725L9.7825 7.7175L9.8125 7.66L9.8375 7.72L9.9 7.73L9.8525 7.775M10.1125 7.8325L10.0625 7.8025L10.01 7.8275L10.02 7.77L9.98 7.7275L10.0375 7.72L10.065 7.67L10.09 7.72L10.1475 7.7325L10.105 7.7725M10.8325 7.2025L10.7825 7.1775L10.7325 7.2025L10.745 7.145L10.705 7.1025L10.7625 7.095L10.7875 7.045L10.8125 7.0975L10.865 7.1075L10.825 7.1475M9.855 8.1925L9.7925 8.1575L9.725 8.1875L9.74 8.1175L9.69 8.0675L9.765 8.06L9.7975 7.9975L9.8275 8.0625L9.9025 8.075L9.845 8.1225M9.86 8.4775L9.8 8.4425L9.74 8.475L9.755 8.405L9.7075 8.355L9.775 8.345L9.805 8.2825L9.8325 8.3475L9.9 8.36L9.85 8.41M9.375 7.8325L9.3275 7.8025L9.2775 7.8275L9.2875 7.7725L9.25 7.73L9.305 7.725L9.33 7.675L9.355 7.725L9.41 7.735L9.37 7.775M8.925 7.8325L8.875 7.8025L8.825 7.8275L8.8375 7.7725L8.7975 7.73L8.855 7.725L8.88 7.675L8.905 7.725L8.9575 7.735L8.9175 7.775M8.1575 7.16L8.1075 7.1325L8.0575 7.1575L8.07 7.1L8.03 7.06L8.085 7.0525L8.11 7.0025L8.135 7.0525L8.19 7.065L8.15 7.1025M8.2425 8.5275L8.2025 8.505L8.1575 8.5275L8.1675 8.4775L8.135 8.4425L8.1825 8.4375L8.205 8.395L8.225 8.44L8.2725 8.4475L8.2375 8.48M7.0825 6.315L6.9825 6.2575L6.8825 6.3075L6.905 6.195L6.825 6.1125L6.9375 6.0975L6.9925 5.9975L7.04 6.1025L7.15 6.1225L7.0675 6.2" fill="#FFFFEF"/>
<path fill-rule="evenodd" clip-rule="evenodd" d="M11.11 7.145C11.1719 6.98429 11.2204 6.81873 11.255 6.65C9.56001 5.1625 7.67251 4.4 5.28751 4.5575C5.20101 4.72488 5.12989 4.89976 5.07501 5.08C7.90001 4.81 9.97501 6.06 11.11 7.145Z" fill="white"/>
<path d="M10.35 6.30999L10.4075 6.34249C10.3989 6.35947 10.3963 6.37884 10.4 6.39749C10.4059 6.41559 10.4184 6.43078 10.435 6.43999C10.4525 6.45249 10.47 6.45999 10.485 6.45749C10.5 6.45749 10.51 6.44999 10.5175 6.43999C10.5219 6.43336 10.5237 6.42535 10.5225 6.41749C10.5205 6.40826 10.5162 6.39967 10.51 6.39249C10.505 6.38499 10.4925 6.36749 10.4725 6.34749C10.452 6.32628 10.4366 6.30062 10.4275 6.27249C10.4213 6.25121 10.4229 6.22839 10.4321 6.2082C10.4413 6.18801 10.4574 6.17179 10.4775 6.16249C10.4957 6.1549 10.5158 6.15316 10.535 6.15749C10.5585 6.16291 10.5806 6.17312 10.6 6.18749C10.635 6.21249 10.6575 6.23749 10.665 6.26749C10.6685 6.28153 10.6689 6.29613 10.6663 6.31035C10.6638 6.32457 10.6582 6.33808 10.65 6.34999L10.59 6.31249C10.5975 6.29749 10.6 6.28249 10.595 6.26999C10.5925 6.25749 10.5825 6.24499 10.565 6.23499C10.5522 6.22467 10.5365 6.21855 10.52 6.21749C10.5155 6.21734 10.511 6.21842 10.507 6.22063C10.5031 6.22283 10.4998 6.22607 10.4975 6.22999C10.4925 6.23749 10.4925 6.24499 10.495 6.25499C10.4975 6.26499 10.51 6.28499 10.535 6.30999C10.56 6.33499 10.575 6.35749 10.585 6.37249C10.5939 6.38888 10.598 6.40748 10.5967 6.42609C10.5953 6.44471 10.5887 6.46254 10.5775 6.47749C10.5658 6.49449 10.5493 6.50756 10.53 6.51499C10.5113 6.52363 10.4903 6.52625 10.47 6.52249C10.4475 6.51749 10.425 6.50749 10.4 6.48999C10.3625 6.46499 10.34 6.43749 10.3325 6.40749C10.3244 6.37348 10.3298 6.33763 10.3475 6.30749L10.35 6.30999ZM10.06 6.11999L10.1225 6.15249C10.1148 6.16976 10.113 6.18912 10.1175 6.20749C10.1239 6.22465 10.1364 6.23888 10.1525 6.24749C10.1725 6.25999 10.1875 6.26499 10.2025 6.26249C10.2175 6.26249 10.2275 6.25499 10.235 6.24249C10.2388 6.23655 10.2406 6.22953 10.24 6.22249C10.24 6.21499 10.235 6.20499 10.2275 6.19749C10.2147 6.18203 10.2014 6.16703 10.1875 6.15249C10.16 6.12499 10.1425 6.10249 10.1375 6.08249C10.1334 6.06963 10.1322 6.05602 10.1339 6.04264C10.1357 6.02925 10.1403 6.0164 10.1475 6.00499C10.157 5.98957 10.171 5.97737 10.1875 5.96999C10.2047 5.96207 10.2238 5.95946 10.2425 5.96249C10.2656 5.96639 10.2877 5.97489 10.3075 5.98749C10.345 6.01249 10.3675 6.03749 10.375 6.06499C10.3796 6.07905 10.381 6.09392 10.3793 6.10859C10.3776 6.12326 10.3727 6.13738 10.365 6.14999L10.3025 6.11499C10.31 6.09749 10.3125 6.08499 10.3075 6.07249C10.3025 6.05999 10.2925 6.04749 10.275 6.03749C10.2612 6.02757 10.2445 6.02231 10.2275 6.02249C10.2234 6.02277 10.2194 6.02406 10.216 6.02624C10.2125 6.02842 10.2096 6.03143 10.2075 6.03499C10.2025 6.04249 10.2025 6.04999 10.205 6.05999C10.2075 6.06999 10.2225 6.08999 10.2475 6.11499C10.2725 6.13999 10.29 6.15999 10.2975 6.17499C10.3075 6.19067 10.3129 6.20889 10.3129 6.22749C10.3129 6.2461 10.3075 6.26432 10.2975 6.27999C10.2867 6.29743 10.2711 6.31134 10.2525 6.31999C10.2338 6.32863 10.2128 6.33125 10.1925 6.32749C10.1668 6.32314 10.1422 6.3138 10.12 6.29999C10.0877 6.28277 10.0628 6.25431 10.05 6.21999C10.0404 6.18662 10.0439 6.1508 10.06 6.11999ZM9.70502 6.02499L9.88752 5.72499L10.1075 5.86249L10.0775 5.91249L9.91752 5.81249L9.87752 5.87999L10.0275 5.97249L9.99502 6.02249L9.84502 5.92999L9.79502 6.01249L9.96252 6.11249L9.93252 6.16249L9.70752 6.02499H9.70502ZM9.18752 5.59999L9.21502 5.54999L9.35002 5.61749L9.28752 5.74249C9.26752 5.74749 9.24252 5.74999 9.21252 5.74749C9.18371 5.74432 9.15574 5.73584 9.13002 5.72249C9.09977 5.70775 9.07391 5.68534 9.05502 5.65749C9.03782 5.63162 9.02909 5.60105 9.03002 5.56999C9.03129 5.53767 9.03983 5.50605 9.05502 5.47749C9.07004 5.44743 9.09239 5.42164 9.12002 5.40249C9.14644 5.38422 9.17789 5.37461 9.21002 5.37499C9.23502 5.37499 9.26002 5.38249 9.29002 5.39999C9.33002 5.41749 9.35502 5.44249 9.36752 5.46999C9.38052 5.49729 9.38318 5.52838 9.37502 5.55749L9.30752 5.53749C9.31165 5.52075 9.30988 5.50309 9.30252 5.48749C9.29502 5.47249 9.28252 5.46249 9.26252 5.45249C9.25086 5.44584 9.23793 5.44173 9.22457 5.44044C9.21121 5.43915 9.19773 5.4407 9.18502 5.44499C9.16002 5.45249 9.13752 5.47499 9.12002 5.50999C9.10252 5.54499 9.09502 5.57749 9.10252 5.60499C9.10597 5.61804 9.11224 5.63017 9.12087 5.64053C9.12951 5.65089 9.14031 5.65924 9.15252 5.66499C9.16502 5.67249 9.18002 5.67749 9.19502 5.67749C9.20993 5.67976 9.2251 5.67976 9.24002 5.67749L9.26002 5.63749L9.18752 5.59999ZM6.93252 5.04249L6.98252 4.69249L7.08752 4.70999L7.11502 4.95499L7.21252 4.72999L7.31752 4.74499L7.26752 5.08999L7.20002 5.07999L7.24252 4.80749L7.13252 5.06999L7.06502 5.05999L7.03752 4.77749L6.99752 5.05249L6.93252 5.04249ZM6.58002 4.99999L6.61252 4.64999L6.87002 4.67499L6.86502 4.73499L6.67752 4.71749L6.67002 4.79249L6.84502 4.80999L6.83752 4.86999L6.66252 4.85249L6.65502 4.94749L6.85002 4.96499L6.84502 5.02499L6.58002 4.99999Z" fill="#309E3A"/>
<path d="M5.41252 4.78249C5.41252 4.74499 5.42002 4.71749 5.43002 4.69249C5.43879 4.67471 5.45064 4.65863 5.46502 4.64499C5.47784 4.63206 5.49315 4.62186 5.51002 4.61499C5.53502 4.60749 5.56002 4.60249 5.58502 4.60249C5.63752 4.60249 5.67752 4.62249 5.71002 4.65249C5.72549 4.6716 5.737 4.69361 5.74386 4.71722C5.75073 4.74083 5.75283 4.76557 5.75002 4.78999C5.75002 4.84499 5.73252 4.88999 5.70002 4.92249C5.68332 4.93793 5.66356 4.94969 5.64203 4.95701C5.6205 4.96433 5.59767 4.96705 5.57502 4.96499C5.55268 4.96522 5.53052 4.9609 5.50989 4.95231C5.48926 4.94371 5.47059 4.93102 5.45502 4.91499C5.42391 4.87817 5.40863 4.83054 5.41252 4.78249Z" fill="#309E3A"/>
<path d="M5.48505 4.78249C5.48505 4.81999 5.49255 4.84999 5.51005 4.87249C5.52755 4.89249 5.55005 4.90499 5.58005 4.90499C5.59302 4.9059 5.60604 4.9039 5.61815 4.89915C5.63026 4.89439 5.64116 4.88699 5.65005 4.87749C5.66755 4.85749 5.67505 4.82749 5.67755 4.78499C5.67755 4.74499 5.67255 4.71499 5.65255 4.69499C5.6444 4.68491 5.63412 4.67677 5.62245 4.67115C5.61078 4.66553 5.598 4.66257 5.58505 4.66249C5.57189 4.66207 5.55881 4.66454 5.54672 4.66972C5.53462 4.67491 5.52381 4.68268 5.51505 4.69249C5.49505 4.71249 5.48755 4.74249 5.48505 4.78249Z" fill="#F7FFFF"/>
<path d="M5.82501 4.9625L5.83001 4.6125H5.98001C6.01751 4.6125 6.04251 4.6175 6.06001 4.625C6.07751 4.63 6.09001 4.6425 6.10001 4.6575C6.11001 4.6725 6.11501 4.6925 6.11501 4.715C6.11521 4.73905 6.10627 4.76228 6.09001 4.78C6.07153 4.79732 6.04775 4.80789 6.02251 4.81L6.06001 4.84C6.07001 4.85 6.08251 4.87 6.09751 4.8975L6.14001 4.9675H6.05501L6.00501 4.8875L5.97001 4.8375C5.96395 4.83062 5.95619 4.82545 5.94751 4.8225C5.93614 4.81919 5.92436 4.8175 5.91251 4.8175H5.89751V4.9625H5.82501Z" fill="#309E3A"/>
<path d="M5.90002 4.7625H5.95002C5.98502 4.7625 6.00752 4.7625 6.01502 4.7575C6.02252 4.7575 6.03002 4.75 6.03502 4.745C6.04002 4.74 6.04252 4.7275 6.04252 4.72C6.04252 4.705 6.04002 4.695 6.03252 4.69C6.02752 4.6825 6.01752 4.6775 6.00752 4.675H5.95752L5.90002 4.6725V4.76V4.7625Z" fill="white"/>
<path d="M6.22502 4.63L6.35502 4.6375C6.38252 4.6375 6.40502 4.64001 6.42002 4.64501C6.43948 4.65206 6.45673 4.66414 6.47002 4.68C6.48442 4.69748 6.49468 4.718 6.50002 4.74001C6.50752 4.76251 6.51002 4.79 6.50752 4.8225C6.5075 4.84802 6.50327 4.87336 6.49502 4.8975C6.48502 4.9225 6.47002 4.94251 6.45252 4.95751C6.43795 4.96951 6.42086 4.97805 6.40252 4.98251C6.38752 4.98751 6.36502 4.9875 6.34002 4.9875L6.20752 4.98L6.22502 4.63Z" fill="#309E3A"/>
<path d="M6.29253 4.6925L6.28003 4.925H6.37503C6.38753 4.925 6.39753 4.92 6.40503 4.9125C6.41253 4.905 6.42003 4.895 6.42503 4.88C6.43003 4.865 6.43503 4.84251 6.43503 4.81501L6.43253 4.75251C6.42896 4.73932 6.42207 4.72727 6.41253 4.7175C6.40423 4.70915 6.39388 4.70312 6.38253 4.7C6.36362 4.6958 6.34438 4.69329 6.32503 4.6925H6.29253Z" fill="white"/>
<path d="M7.94 5.25499L8.0225 4.91499L8.1325 4.93999L8.2125 4.96499C8.23 4.97499 8.245 4.98999 8.2525 5.01249C8.2625 5.03249 8.2625 5.05499 8.2575 5.08249C8.2525 5.10249 8.245 5.11999 8.2325 5.13249C8.22333 5.14347 8.21186 5.1523 8.1989 5.15835C8.18594 5.16439 8.17181 5.16752 8.1575 5.16749C8.14 5.16749 8.115 5.16249 8.0825 5.15499L8.04 5.14249L8.01 5.27249L7.94 5.25499Z" fill="#309E3A"/>
<path d="M8.07499 4.98999L8.05499 5.08499L8.09249 5.09499C8.11749 5.09999 8.13749 5.10499 8.14749 5.10249C8.15722 5.10114 8.16629 5.09681 8.17345 5.09009C8.18061 5.08338 8.18552 5.07461 8.18749 5.06499C8.18749 5.05249 8.18749 5.04249 8.18249 5.03249C8.17701 5.02233 8.16817 5.01438 8.15749 5.00999L8.10999 4.99749L8.07749 4.98999H8.07499Z" fill="white"/>
<path d="M8.26501 5.35251L8.38251 5.02251L8.52001 5.07251C8.55751 5.08501 8.58001 5.09751 8.59501 5.10751C8.60751 5.12001 8.61751 5.13251 8.62001 5.15251C8.62251 5.17251 8.62501 5.19001 8.62001 5.21001C8.61001 5.23501 8.59501 5.25251 8.57501 5.26501C8.55501 5.27501 8.53001 5.27751 8.50001 5.27251C8.51001 5.28501 8.52001 5.29751 8.52501 5.31251L8.54501 5.38001L8.56001 5.45751L8.48251 5.43001L8.45751 5.34001C8.45297 5.31965 8.44713 5.29961 8.44001 5.28001C8.4367 5.27223 8.43155 5.26537 8.42501 5.26001C8.42001 5.25251 8.41001 5.24751 8.39251 5.24251L8.38001 5.23751L8.33001 5.37751L8.26501 5.35251Z" fill="#309E3A"/>
<path d="M8.40002 5.18501L8.44752 5.20251C8.48002 5.21501 8.50002 5.22001 8.51002 5.22001C8.51752 5.22001 8.52502 5.22001 8.53252 5.21251C8.54002 5.20751 8.54502 5.20001 8.54752 5.19001C8.55252 5.18001 8.55252 5.17001 8.54752 5.16001C8.54382 5.15032 8.53671 5.14232 8.52752 5.13751L8.47752 5.12001L8.42752 5.10251L8.39752 5.18501H8.40002Z" fill="white"/>
<path d="M8.67498 5.34C8.68357 5.31073 8.69803 5.28351 8.71748 5.26C8.73012 5.24492 8.74536 5.23222 8.76248 5.2225C8.77797 5.21375 8.7949 5.20782 8.81248 5.205C8.83748 5.205 8.86248 5.205 8.88998 5.215C8.91232 5.22053 8.93324 5.23075 8.95134 5.24497C8.96944 5.25919 8.98432 5.2771 8.99497 5.2975C9.01497 5.3375 9.01498 5.385 8.99998 5.44C8.9876 5.48725 8.95705 5.52769 8.91498 5.5525C8.87748 5.575 8.83247 5.5775 8.78497 5.5625C8.76269 5.55683 8.74184 5.54656 8.72376 5.53235C8.70567 5.51814 8.69076 5.50031 8.67998 5.48C8.66996 5.45815 8.66437 5.43453 8.66351 5.4105C8.66265 5.38648 8.66655 5.36252 8.67498 5.34Z" fill="#309E3A"/>
<path d="M8.74497 5.36C8.73497 5.3975 8.73247 5.43 8.74497 5.455C8.75747 5.48 8.77498 5.495 8.80248 5.505C8.82748 5.5125 8.85248 5.51 8.87748 5.495C8.90248 5.4825 8.91748 5.455 8.92998 5.415C8.94248 5.3775 8.94248 5.3475 8.92998 5.3225C8.92504 5.31064 8.91755 5.30002 8.90805 5.29137C8.89854 5.28273 8.88725 5.27629 8.87497 5.2725C8.86267 5.26826 8.8496 5.26673 8.83665 5.26802C8.8237 5.26932 8.81119 5.27341 8.79997 5.28C8.77497 5.295 8.75747 5.32 8.74497 5.36Z" fill="white"/>
<path d="M9.35748 5.8275L9.51748 5.5175L9.64998 5.585C9.67496 5.59699 9.69777 5.61304 9.71748 5.6325C9.72998 5.645 9.73748 5.66 9.73748 5.68C9.73748 5.7 9.73748 5.7175 9.72748 5.735C9.71787 5.75748 9.69996 5.77539 9.67748 5.785C9.65248 5.79 9.62748 5.79 9.59998 5.78C9.60998 5.795 9.61498 5.81 9.61998 5.8225C9.62498 5.8375 9.62748 5.86 9.62998 5.8925L9.63498 5.9725L9.55998 5.935L9.54998 5.8425C9.5488 5.82153 9.54629 5.80066 9.54248 5.78C9.54078 5.77065 9.53644 5.76198 9.52998 5.755L9.49998 5.7375L9.48748 5.73L9.41998 5.86L9.35748 5.8275Z" fill="#309E3A"/>
<path d="M9.51251 5.68001L9.56001 5.70501C9.59001 5.72001 9.61001 5.73001 9.61751 5.73001C9.62501 5.73001 9.63501 5.73001 9.64251 5.72501C9.65001 5.72251 9.65501 5.71501 9.66001 5.70501C9.66501 5.69501 9.66751 5.68501 9.66501 5.67501C9.66193 5.66505 9.65581 5.65631 9.64751 5.65001C9.63288 5.64102 9.61787 5.63268 9.60251 5.62501L9.55251 5.60001L9.51251 5.68001Z" fill="white"/>
<path d="M10.6525 6.46751C10.6687 6.4418 10.6899 6.41968 10.715 6.40251C10.7318 6.39174 10.7504 6.38412 10.77 6.38001C10.7881 6.3763 10.8068 6.3763 10.825 6.38001C10.85 6.38501 10.8725 6.39501 10.895 6.41001C10.9144 6.42213 10.9312 6.43817 10.9441 6.45711C10.957 6.47605 10.9658 6.49747 10.97 6.52001C10.9775 6.56251 10.965 6.61001 10.935 6.65751C10.9099 6.69882 10.8694 6.72849 10.8225 6.74001C10.8001 6.74484 10.7769 6.74489 10.7545 6.74015C10.7321 6.73541 10.711 6.72599 10.6925 6.71251C10.673 6.70039 10.6563 6.68435 10.6434 6.66541C10.6305 6.64647 10.6217 6.62505 10.6175 6.60251C10.61 6.55751 10.6225 6.51251 10.6525 6.46751Z" fill="#309E3A"/>
<path d="M10.715 6.50751C10.69 6.54001 10.6825 6.57001 10.6875 6.59751C10.6893 6.61018 10.6939 6.6223 10.7008 6.63308C10.7077 6.64386 10.7168 6.65304 10.7275 6.66001C10.7525 6.67751 10.7775 6.68251 10.8025 6.67501C10.8275 6.66751 10.8525 6.65001 10.875 6.61501C10.8975 6.58001 10.9075 6.55001 10.9025 6.52501C10.9 6.50001 10.885 6.47751 10.8625 6.46001C10.84 6.44251 10.8125 6.44001 10.7875 6.44751C10.7625 6.45251 10.7375 6.47251 10.7125 6.50751H10.715Z" fill="white"/>
<path d="M7.54498 5.11249L7.60248 4.86749L7.78248 4.90999L7.77498 4.94999L7.64248 4.91999L7.62998 4.97499L7.75248 5.00249L7.74248 5.04499L7.61998 5.01499L7.60498 5.08249L7.74248 5.11499L7.73248 5.15499L7.54498 5.11249Z" fill="#309E3A"/>
</g>
<defs>
<clipPath id="clip0_64_12922">
<rect width="16" height="12" fill="white"/>
</clipPath>
</defs>
</svg>
