<svg width="18" height="18" viewBox="0 0 18 18" fill="none" xmlns="http://www.w3.org/2000/svg">
<g clip-path="url(#clip0_19_11138)">
<path d="M13.5 6.75C14.139 6.75 14.4727 7.4895 14.0872 7.96725L14.0302 8.03025L9.53022 12.5303C9.40107 12.6594 9.22925 12.737 9.04698 12.7484C8.86471 12.7599 8.68452 12.7044 8.54022 12.5925L8.46972 12.5303L3.96972 8.03025L3.90747 7.95975L3.86697 7.902L3.82647 7.83L3.81371 7.803L3.79347 7.75275L3.76946 7.67175L3.76196 7.632L3.75446 7.587L3.75146 7.54425V7.45575L3.75521 7.41225L3.76196 7.36725L3.76946 7.32825L3.79347 7.24725L3.81371 7.197L3.86622 7.098L3.91496 7.0305L3.96972 6.96975L4.04022 6.9075L4.09797 6.867L4.16996 6.8265L4.19697 6.81375L4.24722 6.7935L4.32822 6.7695L4.36796 6.762L4.41296 6.7545L4.45572 6.7515L13.5 6.75Z" fill="black" fill-opacity="0.3"/>
</g>
<defs>
<clipPath id="clip0_19_11138">
<rect width="18" height="18" fill="white"/>
</clipPath>
</defs>
</svg>
