<svg width="34" height="34" viewBox="0 0 34 34" fill="none" xmlns="http://www.w3.org/2000/svg">
<path d="M21.3455 0.5C22.8195 0.49992 24.2419 1.04241 25.3415 2.024L25.589 2.258L31.739 8.408C32.7837 9.45066 33.4075 10.8418 33.491 12.3155L33.5 12.656V21.347C33.5001 22.821 32.9576 24.2434 31.976 25.343L31.742 25.5905L25.592 31.7405C24.5501 32.7846 23.1601 33.4083 21.6875 33.4925L21.347 33.5015H12.6545C11.1803 33.5013 9.75779 32.9582 8.6585 31.976L8.411 31.742L2.261 25.592C1.21659 24.5497 0.592852 23.1591 0.509 21.686L0.5 21.3455V12.6545C0.49992 11.1805 1.04241 9.75809 2.024 8.6585L2.258 8.411L8.408 2.261C9.45066 1.21625 10.8418 0.59249 12.3155 0.509L12.656 0.5H21.3455ZM17 21.5C16.6326 21.5 16.278 21.6349 16.0034 21.8791C15.7289 22.1232 15.5535 22.4596 15.5105 22.8245L15.5 23L15.5105 23.1905C15.5539 23.5551 15.7294 23.8911 16.0039 24.1349C16.2785 24.3787 16.6329 24.5133 17 24.5133C17.3671 24.5133 17.7215 24.3787 17.9961 24.1349C18.2706 23.8911 18.4461 23.5551 18.4895 23.1905L18.5 23.015L18.4895 22.8245C18.4465 22.4596 18.2711 22.1232 17.9966 21.8791C17.722 21.6349 17.3674 21.5 17 21.5ZM19.052 11.4905C18.1541 11.0314 17.1273 10.8895 16.1385 11.0878C15.1498 11.286 14.2571 11.8128 13.6055 12.5825C13.3571 12.8735 13.2292 13.2484 13.2482 13.6306C13.2671 14.0127 13.4313 14.3732 13.7073 14.6383C13.9833 14.9033 14.3501 15.0529 14.7327 15.0563C15.1153 15.0598 15.4848 14.917 15.7655 14.657L16.022 14.387C16.2433 14.1839 16.5215 14.0534 16.8192 14.0132C17.1169 13.973 17.4197 14.0249 17.687 14.162C17.9751 14.3078 18.2085 14.5427 18.3524 14.8318C18.4964 15.1209 18.5432 15.4487 18.4859 15.7665C18.4286 16.0843 18.2703 16.3751 18.0344 16.5957C17.7986 16.8163 17.4979 16.955 17.177 16.991L16.829 17.009C16.4475 17.051 16.0966 17.2376 15.8485 17.5305C15.6004 17.8233 15.474 18.2001 15.4954 18.5834C15.5167 18.9666 15.6841 19.3271 15.9632 19.5906C16.2422 19.8541 16.6117 20.0006 16.9955 20C18.0074 20.003 18.9909 19.6649 19.787 19.0402C20.5831 18.4155 21.1454 17.5407 21.3831 16.5571C21.6208 15.5735 21.5201 14.5384 21.0971 13.6191C20.6741 12.6998 19.9536 11.9499 19.052 11.4905Z" fill="#FE9F11"/>
</svg>
