<svg width="16" height="12" viewBox="0 0 16 12" fill="none" xmlns="http://www.w3.org/2000/svg">
<g clip-path="url(#clip0_64_12909)">
<path d="M0 0H16V12H0V0Z" fill="#00008B"/>
<path d="M0.9375 0L3.9875 2.2625L7.025 0H8V0.775L5 3.0125L8 5.2375V6H7L4 3.7625L1.0125 6H0V5.25L2.9875 3.025L0 0.8V0H0.9375Z" fill="white"/>
<path d="M5.3 3.5125L8 5.5V6L4.6125 3.5125H5.3ZM3 3.7625L3.075 4.2L0.675 6H0L3 3.7625ZM8 0V0.0375L4.8875 2.3875L4.9125 1.8375L7.375 0H8ZM0 0L2.9875 2.2H2.2375L0 0.525V0Z" fill="#FF0000"/>
<path d="M3.0125 0V6H5.0125V0H3.0125ZM0 2V4H8V2H0Z" fill="white"/>
<path d="M0 2.4125V3.6125H8V2.4125H0ZM3.4125 0V6H4.6125V0H3.4125Z" fill="#FF0000"/>
<path d="M13.175 9.9175L12.6625 9.9825L12.7175 10.495L12.3475 10.135L11.98 10.4975L12.03 9.985L11.5175 9.925L11.95 9.645L11.6775 9.2075L12.1675 9.37L12.34 8.8825L12.5175 9.3675L13.005 9.2L12.7375 9.64L13.1725 9.9175H13.175ZM13.0825 6.9875L13.15 6.6625L12.905 6.4375L13.235 6.4L13.3725 6.0975L13.51 6.4L13.84 6.4375L13.595 6.6625L13.6625 6.9875L13.3725 6.8225L13.0825 6.9875ZM10.48 5.4875L9.97253 5.5425L10.0175 6.05L9.65753 5.6875L9.28753 6.04L9.34753 5.5325L8.84253 5.465L9.27503 5.195L9.01253 4.7575L9.49503 4.9275L9.67503 4.45L9.84253 4.9325L10.3275 4.775L10.055 5.2075L10.4825 5.4875H10.48ZM15.575 4.6675L15.0525 4.735L15.11 5.2575L14.7325 4.89L14.3575 5.26L14.41 4.735L13.8875 4.675L14.33 4.3875L14.0525 3.94L14.5525 4.1075L14.7275 3.6125L14.9075 4.1075L15.405 3.935L15.13 4.385L15.575 4.6675ZM13.1725 2.58L12.655 2.6375L12.7025 3.1575L12.335 2.7875L11.9575 3.1475L12.0175 2.63L11.5 2.56L11.9425 2.285L11.675 1.8375L12.1675 2.01L12.35 1.5225L12.52 2.015L13.015 1.8525L12.7375 2.2925L13.1725 2.58ZM5.85003 9.6425L4.70503 9.7775L4.82003 10.925L4.00003 10.115L3.17503 10.92L3.29753 9.7725L2.15253 9.6275L3.12503 9.0075L2.52503 8.0225L3.61503 8.3975L4.01003 7.3125L4.39753 8.4L5.49003 8.0325L4.88253 9.0125L5.85253 9.64L5.85003 9.6425Z" fill="white"/>
</g>
<defs>
<clipPath id="clip0_64_12909">
<rect width="16" height="12" fill="white"/>
</clipPath>
</defs>
</svg>
