<svg width="16" height="12" viewBox="0 0 16 12" fill="none" xmlns="http://www.w3.org/2000/svg">
<g clip-path="url(#clip0_64_12960)">
<path d="M3.7525 0H12.245V12H3.75L3.7525 0Z" fill="white"/>
<path d="M-0.492493 0H3.75251V12H-0.492493V0ZM12.245 0H16.49V12H12.2475L12.245 0ZM5.02501 5.8L4.69251 5.91L6.22751 7.26C6.34501 7.6025 6.18751 7.705 6.08751 7.885L7.75251 7.675L7.71251 9.35L8.06001 9.3425L7.98251 7.6775L9.65001 7.8775C9.54751 7.66 9.45501 7.545 9.55001 7.1975L11.0825 5.9225L10.815 5.8225C10.595 5.6525 10.91 5.0075 10.955 4.6C10.955 4.6 10.0625 4.9075 10.005 4.745L9.77501 4.3075L8.96001 5.2025C8.87251 5.225 8.83501 5.19 8.81251 5.115L9.18751 3.245L8.59251 3.58C8.54251 3.6025 8.49251 3.5825 8.46251 3.525L7.88751 2.375L7.29751 3.57C7.25251 3.6125 7.20751 3.6175 7.17251 3.5875L6.60001 3.27L6.94251 5.1225C6.91501 5.1975 6.85001 5.2175 6.77501 5.1775L5.99501 4.295C5.89501 4.4575 5.82501 4.7225 5.69001 4.7825C5.55501 4.84 5.10251 4.67 4.80001 4.6075C4.90501 4.9775 5.22501 5.5975 5.02501 5.8Z" fill="#D52B1E"/>
</g>
<defs>
<clipPath id="clip0_64_12960">
<rect width="16" height="12" fill="white"/>
</clipPath>
</defs>
</svg>
