<svg width="16" height="12" viewBox="0 0 16 12" fill="none" xmlns="http://www.w3.org/2000/svg">
<g clip-path="url(#clip0_64_12631)">
<path d="M0 0H16V12H0V0Z" fill="#003399"/>
<path d="M7.99998 1.90936L7.8222 2.50195L8.1185 2.56121L7.99998 1.90936Z" fill="#FFCC00"/>
<path d="M7.99996 1.90936L8.17773 2.50195L7.88144 2.56121L7.99996 1.90936Z" fill="#FFCC00"/>
<path d="M8.5636 2.31883L7.94508 2.33287L7.98028 2.63298L8.5636 2.31883Z" fill="#FFCC00"/>
<path d="M8.56359 2.31882L8.05494 2.67102L7.90702 2.40754L8.56359 2.31882Z" fill="#FFCC00"/>
<path d="M8.3483 2.98136L8.14381 2.39745L7.86927 2.52367L8.3483 2.98136Z" fill="#FFCC00"/>
<path d="M8.34829 2.98137L7.85615 2.60644L8.06103 2.38434L8.34829 2.98137Z" fill="#FFCC00"/>
<path d="M7.4364 2.31883L8.05492 2.33287L8.01972 2.63298L7.4364 2.31883Z" fill="#FFCC00"/>
<path d="M7.43641 2.31882L7.94506 2.67102L8.09298 2.40754L7.43641 2.31882Z" fill="#FFCC00"/>
<path d="M7.6517 2.98136L7.85619 2.39745L8.13073 2.52367L7.6517 2.98136Z" fill="#FFCC00"/>
<path d="M7.65171 2.98137L8.14385 2.60644L7.93897 2.38434L7.65171 2.98137Z" fill="#FFCC00"/>
<path d="M7.99998 9.02046L7.8222 9.61305L8.1185 9.67231L7.99998 9.02046Z" fill="#FFCC00"/>
<path d="M7.99996 9.02046L8.17773 9.61305L7.88144 9.67231L7.99996 9.02046Z" fill="#FFCC00"/>
<path d="M8.5636 9.42993L7.94508 9.44398L7.98028 9.74408L8.5636 9.42993Z" fill="#FFCC00"/>
<path d="M8.56359 9.42993L8.05494 9.78213L7.90702 9.51865L8.56359 9.42993Z" fill="#FFCC00"/>
<path d="M8.3483 10.0925L8.14381 9.50856L7.86927 9.63478L8.3483 10.0925Z" fill="#FFCC00"/>
<path d="M8.34829 10.0925L7.85615 9.71755L8.06103 9.49545L8.34829 10.0925Z" fill="#FFCC00"/>
<path d="M7.4364 9.42993L8.05492 9.44398L8.01972 9.74408L7.4364 9.42993Z" fill="#FFCC00"/>
<path d="M7.43641 9.42993L7.94506 9.78213L8.09298 9.51865L7.43641 9.42993Z" fill="#FFCC00"/>
<path d="M7.6517 10.0925L7.85619 9.50856L8.13073 9.63478L7.6517 10.0925Z" fill="#FFCC00"/>
<path d="M7.65171 10.0925L8.14385 9.71755L7.93897 9.49545L7.65171 10.0925Z" fill="#FFCC00"/>
<path d="M4.44444 5.46491L4.26666 6.0575L4.56296 6.11676L4.44444 5.46491Z" fill="#FFCC00"/>
<path d="M4.44441 5.46491L4.62219 6.0575L4.3259 6.11676L4.44441 5.46491Z" fill="#FFCC00"/>
<path d="M5.00806 5.87438L4.38954 5.88843L4.42474 6.18853L5.00806 5.87438Z" fill="#FFCC00"/>
<path d="M5.00805 5.87438L4.4994 6.22658L4.35148 5.9631L5.00805 5.87438Z" fill="#FFCC00"/>
<path d="M4.79276 6.53692L4.58827 5.95301L4.31373 6.07923L4.79276 6.53692Z" fill="#FFCC00"/>
<path d="M4.79275 6.53692L4.30061 6.162L4.50549 5.9399L4.79275 6.53692Z" fill="#FFCC00"/>
<path d="M3.88085 5.87438L4.49938 5.88843L4.46418 6.18853L3.88085 5.87438Z" fill="#FFCC00"/>
<path d="M3.88086 5.87438L4.38952 6.22658L4.53744 5.9631L3.88086 5.87438Z" fill="#FFCC00"/>
<path d="M4.09616 6.53692L4.30065 5.95301L4.57519 6.07923L4.09616 6.53692Z" fill="#FFCC00"/>
<path d="M4.09617 6.53692L4.58831 6.162L4.38343 5.9399L4.09617 6.53692Z" fill="#FFCC00"/>
<path d="M5.91752 3.48457L6.40966 3.10965L6.20478 2.88755L5.91752 3.48457Z" fill="#FFCC00"/>
<path d="M5.91751 3.48457L6.122 2.90066L6.39654 3.02687L5.91751 3.48457Z" fill="#FFCC00"/>
<path d="M5.70228 2.82203L6.21093 3.17423L6.35885 2.91074L5.70228 2.82203Z" fill="#FFCC00"/>
<path d="M5.70227 2.82203L6.32079 2.83608L6.28559 3.13618L5.70227 2.82203Z" fill="#FFCC00"/>
<path d="M6.26585 2.41256L6.08807 3.00515L6.38437 3.06441L6.26585 2.41256Z" fill="#FFCC00"/>
<path d="M6.26583 2.41256L6.4436 3.00515L6.14731 3.06441L6.26583 2.41256Z" fill="#FFCC00"/>
<path d="M6.6141 3.48457L6.12196 3.10965L6.32684 2.88755L6.6141 3.48457Z" fill="#FFCC00"/>
<path d="M6.61411 3.48457L6.40962 2.90066L6.13508 3.02687L6.61411 3.48457Z" fill="#FFCC00"/>
<path d="M6.8294 2.82203L6.32075 3.17423L6.17283 2.91074L6.8294 2.82203Z" fill="#FFCC00"/>
<path d="M6.82941 2.82203L6.21089 2.83608L6.24609 3.13618L6.82941 2.82203Z" fill="#FFCC00"/>
<path d="M5.29599 4.80276L5.0915 4.21885L4.81696 4.34506L5.29599 4.80276Z" fill="#FFCC00"/>
<path d="M5.29599 4.80276L4.80384 4.42784L5.00872 4.20574L5.29599 4.80276Z" fill="#FFCC00"/>
<path d="M4.5994 4.80276L5.09154 4.42784L4.88667 4.20574L4.5994 4.80276Z" fill="#FFCC00"/>
<path d="M4.59939 4.80276L4.80388 4.21885L5.07842 4.34506L4.59939 4.80276Z" fill="#FFCC00"/>
<path d="M4.3841 4.14022L4.89275 4.49242L5.04067 4.22893L4.3841 4.14022Z" fill="#FFCC00"/>
<path d="M4.38409 4.14022L5.00261 4.15427L4.96741 4.45437L4.38409 4.14022Z" fill="#FFCC00"/>
<path d="M5.51123 4.14022L5.00257 4.49242L4.85465 4.22893L5.51123 4.14022Z" fill="#FFCC00"/>
<path d="M5.51124 4.14022L4.89271 4.15427L4.92791 4.45437L5.51124 4.14022Z" fill="#FFCC00"/>
<path d="M4.94765 3.73075L5.12543 4.32334L4.82913 4.3826L4.94765 3.73075Z" fill="#FFCC00"/>
<path d="M4.94768 3.73075L4.7699 4.32334L5.06619 4.3826L4.94768 3.73075Z" fill="#FFCC00"/>
<path d="M5.51185 7.70431L4.89332 7.71835L4.92852 8.01846L5.51185 7.70431Z" fill="#FFCC00"/>
<path d="M5.51184 7.70431L5.00318 8.0565L4.85526 7.79302L5.51184 7.70431Z" fill="#FFCC00"/>
<path d="M5.2966 8.36685L5.09211 7.78293L4.81757 7.90915L5.2966 8.36685Z" fill="#FFCC00"/>
<path d="M5.2966 8.36685L4.80445 7.99193L5.00933 7.76983L5.2966 8.36685Z" fill="#FFCC00"/>
<path d="M4.59995 8.36685L5.09209 7.99193L4.88721 7.76983L4.59995 8.36685Z" fill="#FFCC00"/>
<path d="M4.59994 8.36685L4.80443 7.78293L5.07897 7.90915L4.59994 8.36685Z" fill="#FFCC00"/>
<path d="M4.94826 7.29484L5.12604 7.88743L4.82974 7.94669L4.94826 7.29484Z" fill="#FFCC00"/>
<path d="M4.94829 7.29484L4.77051 7.88743L5.0668 7.94669L4.94829 7.29484Z" fill="#FFCC00"/>
<path d="M4.3847 7.70431L5.00323 7.71835L4.96802 8.01846L4.3847 7.70431Z" fill="#FFCC00"/>
<path d="M4.38471 7.70431L4.89336 8.0565L5.04128 7.79302L4.38471 7.70431Z" fill="#FFCC00"/>
<path d="M6.79798 8.89706L6.17945 8.9111L6.21465 9.21121L6.79798 8.89706Z" fill="#FFCC00"/>
<path d="M6.79797 8.89705L6.28932 9.24925L6.1414 8.98577L6.79797 8.89705Z" fill="#FFCC00"/>
<path d="M6.58274 9.5596L6.37825 8.97568L6.1037 9.1019L6.58274 9.5596Z" fill="#FFCC00"/>
<path d="M6.58273 9.5596L6.09059 9.18468L6.29546 8.96258L6.58273 9.5596Z" fill="#FFCC00"/>
<path d="M5.88608 9.5596L6.37822 9.18468L6.17335 8.96258L5.88608 9.5596Z" fill="#FFCC00"/>
<path d="M5.88607 9.5596L6.09057 8.97568L6.36511 9.1019L5.88607 9.5596Z" fill="#FFCC00"/>
<path d="M6.23439 8.48759L6.41217 9.08018L6.11587 9.13944L6.23439 8.48759Z" fill="#FFCC00"/>
<path d="M6.23442 8.48759L6.05664 9.08018L6.35294 9.13944L6.23442 8.48759Z" fill="#FFCC00"/>
<path d="M5.67083 8.89706L6.28936 8.9111L6.25416 9.21121L5.67083 8.89706Z" fill="#FFCC00"/>
<path d="M5.67084 8.89705L6.17949 9.24925L6.32741 8.98577L5.67084 8.89705Z" fill="#FFCC00"/>
<path d="M11.5556 5.46491L11.7333 6.0575L11.437 6.11676L11.5556 5.46491Z" fill="#FFCC00"/>
<path d="M11.5556 5.46491L11.3778 6.0575L11.6741 6.11676L11.5556 5.46491Z" fill="#FFCC00"/>
<path d="M10.9919 5.87438L11.6105 5.88843L11.5753 6.18853L10.9919 5.87438Z" fill="#FFCC00"/>
<path d="M10.9919 5.87438L11.5006 6.22658L11.6485 5.9631L10.9919 5.87438Z" fill="#FFCC00"/>
<path d="M11.2072 6.53692L11.4117 5.95301L11.6863 6.07923L11.2072 6.53692Z" fill="#FFCC00"/>
<path d="M11.2072 6.53692L11.6994 6.162L11.4945 5.9399L11.2072 6.53692Z" fill="#FFCC00"/>
<path d="M12.1191 5.87438L11.5006 5.88843L11.5358 6.18853L12.1191 5.87438Z" fill="#FFCC00"/>
<path d="M12.1191 5.87438L11.6105 6.22658L11.4626 5.9631L12.1191 5.87438Z" fill="#FFCC00"/>
<path d="M11.9038 6.53692L11.6994 5.95301L11.4248 6.07923L11.9038 6.53692Z" fill="#FFCC00"/>
<path d="M11.9038 6.53692L11.4117 6.162L11.6166 5.9399L11.9038 6.53692Z" fill="#FFCC00"/>
<path d="M10.0825 3.48457L9.59034 3.10965L9.79522 2.88755L10.0825 3.48457Z" fill="#FFCC00"/>
<path d="M10.0825 3.48457L9.878 2.90066L9.60346 3.02687L10.0825 3.48457Z" fill="#FFCC00"/>
<path d="M10.2977 2.82203L9.78907 3.17423L9.64115 2.91074L10.2977 2.82203Z" fill="#FFCC00"/>
<path d="M10.2977 2.82203L9.67921 2.83608L9.71441 3.13618L10.2977 2.82203Z" fill="#FFCC00"/>
<path d="M9.73415 2.41256L9.91193 3.00515L9.61563 3.06441L9.73415 2.41256Z" fill="#FFCC00"/>
<path d="M9.73417 2.41256L9.5564 3.00515L9.85269 3.06441L9.73417 2.41256Z" fill="#FFCC00"/>
<path d="M9.3859 3.48457L9.87804 3.10965L9.67316 2.88755L9.3859 3.48457Z" fill="#FFCC00"/>
<path d="M9.38589 3.48457L9.59038 2.90066L9.86492 3.02687L9.38589 3.48457Z" fill="#FFCC00"/>
<path d="M9.1706 2.82203L9.67925 3.17423L9.82717 2.91074L9.1706 2.82203Z" fill="#FFCC00"/>
<path d="M9.17059 2.82203L9.78911 2.83608L9.75391 3.13618L9.17059 2.82203Z" fill="#FFCC00"/>
<path d="M10.704 4.80276L10.9085 4.21885L11.183 4.34506L10.704 4.80276Z" fill="#FFCC00"/>
<path d="M10.704 4.80276L11.1962 4.42784L10.9913 4.20574L10.704 4.80276Z" fill="#FFCC00"/>
<path d="M11.4006 4.80276L10.9085 4.42784L11.1133 4.20574L11.4006 4.80276Z" fill="#FFCC00"/>
<path d="M11.4006 4.80276L11.1961 4.21885L10.9216 4.34506L11.4006 4.80276Z" fill="#FFCC00"/>
<path d="M11.6159 4.14022L11.1072 4.49242L10.9593 4.22893L11.6159 4.14022Z" fill="#FFCC00"/>
<path d="M11.6159 4.14022L10.9974 4.15427L11.0326 4.45437L11.6159 4.14022Z" fill="#FFCC00"/>
<path d="M10.4888 4.14022L10.9974 4.49242L11.1453 4.22893L10.4888 4.14022Z" fill="#FFCC00"/>
<path d="M10.4888 4.14022L11.1073 4.15427L11.0721 4.45437L10.4888 4.14022Z" fill="#FFCC00"/>
<path d="M11.0524 3.73075L10.8746 4.32334L11.1709 4.3826L11.0524 3.73075Z" fill="#FFCC00"/>
<path d="M11.0523 3.73075L11.2301 4.32334L10.9338 4.3826L11.0523 3.73075Z" fill="#FFCC00"/>
<path d="M10.4882 7.70431L11.1067 7.71835L11.0715 8.01846L10.4882 7.70431Z" fill="#FFCC00"/>
<path d="M10.4882 7.70431L10.9968 8.0565L11.1447 7.79302L10.4882 7.70431Z" fill="#FFCC00"/>
<path d="M10.7034 8.36685L10.9079 7.78293L11.1824 7.90915L10.7034 8.36685Z" fill="#FFCC00"/>
<path d="M10.7034 8.36685L11.1955 7.99193L10.9907 7.76983L10.7034 8.36685Z" fill="#FFCC00"/>
<path d="M11.4001 8.36685L10.9079 7.99193L11.1128 7.76983L11.4001 8.36685Z" fill="#FFCC00"/>
<path d="M11.4001 8.36685L11.1956 7.78293L10.921 7.90915L11.4001 8.36685Z" fill="#FFCC00"/>
<path d="M11.0517 7.29484L10.874 7.88743L11.1703 7.94669L11.0517 7.29484Z" fill="#FFCC00"/>
<path d="M11.0517 7.29484L11.2295 7.88743L10.9332 7.94669L11.0517 7.29484Z" fill="#FFCC00"/>
<path d="M11.6153 7.70431L10.9968 7.71835L11.032 8.01846L11.6153 7.70431Z" fill="#FFCC00"/>
<path d="M11.6153 7.70431L11.1066 8.0565L10.9587 7.79302L11.6153 7.70431Z" fill="#FFCC00"/>
<path d="M9.20202 8.89706L9.82055 8.9111L9.78535 9.21121L9.20202 8.89706Z" fill="#FFCC00"/>
<path d="M9.20203 8.89705L9.71068 9.24925L9.8586 8.98577L9.20203 8.89705Z" fill="#FFCC00"/>
<path d="M9.41726 9.5596L9.62175 8.97568L9.8963 9.1019L9.41726 9.5596Z" fill="#FFCC00"/>
<path d="M9.41727 9.5596L9.90941 9.18468L9.70454 8.96258L9.41727 9.5596Z" fill="#FFCC00"/>
<path d="M10.1139 9.5596L9.62178 9.18468L9.82665 8.96258L10.1139 9.5596Z" fill="#FFCC00"/>
<path d="M10.1139 9.5596L9.90943 8.97568L9.63489 9.1019L10.1139 9.5596Z" fill="#FFCC00"/>
<path d="M9.76561 8.48759L9.58783 9.08018L9.88413 9.13944L9.76561 8.48759Z" fill="#FFCC00"/>
<path d="M9.76558 8.48759L9.94336 9.08018L9.64706 9.13944L9.76558 8.48759Z" fill="#FFCC00"/>
<path d="M10.3292 8.89706L9.71064 8.9111L9.74584 9.21121L10.3292 8.89706Z" fill="#FFCC00"/>
<path d="M10.3292 8.89705L9.82051 9.24925L9.67259 8.98577L10.3292 8.89705Z" fill="#FFCC00"/>
</g>
<defs>
<clipPath id="clip0_64_12631">
<rect width="16" height="12" fill="white"/>
</clipPath>
</defs>
</svg>
